<svg width="99" height="99" viewBox="0 0 99 99" fill="none" xmlns="http://www.w3.org/2000/svg">
<path d="M91.099 21.9335C93.6277 25.8273 92.7405 30.6087 91.9471 34.7969C91.4726 37.181 91.0093 39.6643 91.2987 41.3395C91.588 43.0146 92.8898 44.9372 94.141 46.9459C96.4621 50.6019 99.0861 54.8065 98.0754 59.5616C97.0646 64.3167 92.9573 67.0905 89.3499 69.4864C87.3899 70.8125 85.3924 72.1629 84.4729 73.452C83.5535 74.7411 82.9404 77.3217 82.4042 79.6927C81.4255 83.8414 80.2913 88.5703 76.3974 91.099C72.5036 93.6277 67.7222 92.7405 63.5341 91.9471C61.15 91.4726 58.6666 91.0093 56.9915 91.2987C55.3164 91.588 53.3938 92.8898 51.3851 94.141C47.729 96.4621 43.5245 99.0861 38.7694 98.0753C34.0142 97.0646 31.2405 92.9573 28.8446 89.3499C27.5185 87.3899 26.168 85.3924 24.8789 84.4729C23.5899 83.5535 21.0093 82.9404 18.6383 82.4042C14.4895 81.4255 9.76063 80.2913 7.23195 76.3974C4.70327 72.5036 5.59049 67.7222 6.38389 63.5341C6.85839 61.1499 7.32169 58.6666 7.0323 56.9915C6.74291 55.3164 5.44113 53.3938 4.18991 51.3851C1.86887 47.729 -0.755129 43.5245 0.255604 38.7694C1.26634 34.0142 5.37362 31.2405 8.98105 28.8445C10.9411 27.5185 12.9386 26.168 13.858 24.8789C14.7775 23.5898 15.3905 21.0093 15.9268 18.6383C16.9055 14.4895 18.0397 9.76063 21.9335 7.23195C25.8274 4.70326 30.6087 5.59049 34.7969 6.38389C37.181 6.85838 39.6643 7.32168 41.3395 7.03229C43.0146 6.7429 44.9372 5.44112 46.9459 4.18991C50.6019 1.86886 54.8065 -0.755134 59.5616 0.255599C64.3167 1.26633 67.0905 5.37362 69.4864 8.98105C70.8125 10.9411 72.1629 12.9386 73.452 13.858C74.7411 14.7775 77.3217 15.3905 79.6927 15.9268C83.8414 16.9055 88.5703 18.0397 91.099 21.9335Z" fill="#FF652D"/>
</svg>
