<svg width="96" height="111" viewBox="0 0 96 111" fill="none" xmlns="http://www.w3.org/2000/svg">
<path d="M82.6879 19.7H66.2879V30.6H82.6879V50.8H95.4879V0.399994H82.6879V19.7ZM66.9879 50.7L73.1879 40.2L48.4879 25.9C49.5879 22.7 50.1879 19.2 50.3879 15.6H69.6879V4.39999H18.7879V15.6H37.9879C37.3879 25.9 30.6879 33.9 15.0879 41.8L20.9879 52.2C30.8879 47.4 38.0879 42.1 42.9879 36L66.9879 50.7ZM95.4879 93.8V55.9H31.9879V93.8H95.4879ZM82.6879 67.2V82.4H44.7879V67.2H82.6879Z" fill="#E20000"/>
<path d="M0 4.4H20V15.6H0V4.4Z" fill="#E20000"/>
<path d="M82.7 81H95.46V111H82.7V81Z" fill="#E20000"/>
</svg>
